<svg id="visual" viewBox="0 0 960 580" width="960" height="580" xmlns="http://www.w3.org/2000/svg" xmlns:xlink="http://www.w3.org/1999/xlink" version="1.1"><rect x="0" y="0" width="960" height="580" fill="#FFFFFF"></rect><path d="M0 438L107 432L213 485L320 437L427 488L533 484L640 495L747 509L853 450L960 490L960 581L853 581L747 581L640 581L533 581L427 581L320 581L213 581L107 581L0 581Z" fill="#dedede"></path><path d="M0 500L107 496L213 527L320 469L427 526L533 479L640 455L747 466L853 468L960 482L960 581L853 581L747 581L640 581L533 581L427 581L320 581L213 581L107 581L0 581Z" fill="#d3d3d3"></path><path d="M0 491L107 503L213 503L320 481L427 540L533 501L640 508L747 509L853 505L960 505L960 581L853 581L747 581L640 581L533 581L427 581L320 581L213 581L107 581L0 581Z" fill="#cccccc"></path><path d="M0 523L107 526L213 546L320 549L427 526L533 533L640 537L747 539L853 511L960 523L960 581L853 581L747 581L640 581L533 581L427 581L320 581L213 581L107 581L0 581Z" fill="#d3d3d3"></path><path d="M0 546L107 550L213 555L320 558L427 570L533 557L640 554L747 540L853 563L960 541L960 581L853 581L747 581L640 581L533 581L427 581L320 581L213 581L107 581L0 581Z" fill="#dedede"></path></svg>