<svg id="visual" viewBox="0 0 960 580" width="960" height="580" xmlns="http://www.w3.org/2000/svg" xmlns:xlink="http://www.w3.org/1999/xlink" version="1.1"><rect x="0" y="0" width="960" height="580" fill="#dedede"></rect><path d="M0 375L137 453L274 403L411 404L549 377L686 332L823 354L960 459L960 581L823 581L686 581L549 581L411 581L274 581L137 581L0 581Z" fill="#cccccc"></path><path d="M0 475L137 344L274 415L411 361L549 432L686 462L823 465L960 381L960 581L823 581L686 581L549 581L411 581L274 581L137 581L0 581Z" fill="#d3d3d3"></path><path d="M0 389L137 457L274 420L411 491L549 458L686 384L823 483L960 372L960 581L823 581L686 581L549 581L411 581L274 581L137 581L0 581Z" fill="#dadada"></path><path d="M0 465L137 511L274 456L411 432L549 427L686 446L823 400L960 467L960 581L823 581L686 581L549 581L411 581L274 581L137 581L0 581Z" fill="#e1e1e1"></path><path d="M0 431L137 437L274 494L411 475L549 508L686 485L823 528L960 453L960 581L823 581L686 581L549 581L411 581L274 581L137 581L0 581Z" fill="#e9e9e9"></path><path d="M0 474L137 519L274 470L411 529L549 512L686 532L823 494L960 528L960 581L823 581L686 581L549 581L411 581L274 581L137 581L0 581Z" fill="#f0f0f0"></path><path d="M0 531L137 532L274 497L411 547L549 507L686 542L823 509L960 504L960 581L823 581L686 581L549 581L411 581L274 581L137 581L0 581Z" fill="#f8f8f8"></path><path d="M0 535L137 533L274 534L411 555L549 550L686 537L823 529L960 545L960 581L823 581L686 581L549 581L411 581L274 581L137 581L0 581Z" fill="#ffffff"></path></svg>