<svg id="visual" viewBox="0 0 450 900" width="450" height="900" xmlns="http://www.w3.org/2000/svg" xmlns:xlink="http://www.w3.org/1999/xlink" version="1.1"><rect x="0" y="0" width="450" height="900" fill="#dedede"></rect><path d="M0 594L64 729L129 533L193 644L257 743L321 639L386 685L450 505L450 901L386 901L321 901L257 901L193 901L129 901L64 901L0 901Z" fill="#cccccc"></path><path d="M0 626L64 711L129 659L193 562L257 780L321 593L386 756L450 599L450 901L386 901L321 901L257 901L193 901L129 901L64 901L0 901Z" fill="#d8d8d8"></path><path d="M0 752L64 626L129 730L193 787L257 672L321 721L386 765L450 712L450 901L386 901L321 901L257 901L193 901L129 901L64 901L0 901Z" fill="#e5e5e5"></path><path d="M0 794L64 740L129 801L193 717L257 798L321 759L386 797L450 708L450 901L386 901L321 901L257 901L193 901L129 901L64 901L0 901Z" fill="#f2f2f2"></path><path d="M0 775L64 852L129 806L193 810L257 817L321 811L386 869L450 793L450 901L386 901L321 901L257 901L193 901L129 901L64 901L0 901Z" fill="#ffffff"></path></svg>