<svg id="visual" viewBox="0 0 450 900" width="450" height="900" xmlns="http://www.w3.org/2000/svg" xmlns:xlink="http://www.w3.org/1999/xlink" version="1.1"><rect x="0" y="0" width="450" height="900" fill="#dedede"></rect><path d="M0 583L64 703L129 626L193 628L257 586L321 515L386 550L450 713L450 901L386 901L321 901L257 901L193 901L129 901L64 901L0 901Z" fill="#cccccc"></path><path d="M0 738L64 535L129 644L193 561L257 671L321 718L386 722L450 592L450 901L386 901L321 901L257 901L193 901L129 901L64 901L0 901Z" fill="#d3d3d3"></path><path d="M0 604L64 709L129 652L193 763L257 711L321 596L386 751L450 578L450 901L386 901L321 901L257 901L193 901L129 901L64 901L0 901Z" fill="#dadada"></path><path d="M0 722L64 793L129 708L193 671L257 664L321 693L386 621L450 725L450 901L386 901L321 901L257 901L193 901L129 901L64 901L0 901Z" fill="#e1e1e1"></path><path d="M0 670L64 679L129 767L193 737L257 789L321 753L386 819L450 703L450 901L386 901L321 901L257 901L193 901L129 901L64 901L0 901Z" fill="#e9e9e9"></path><path d="M0 735L64 805L129 730L193 822L257 796L321 826L386 767L450 820L450 901L386 901L321 901L257 901L193 901L129 901L64 901L0 901Z" fill="#f0f0f0"></path><path d="M0 824L64 827L129 772L193 849L257 787L321 842L386 790L450 782L450 901L386 901L321 901L257 901L193 901L129 901L64 901L0 901Z" fill="#f8f8f8"></path><path d="M0 831L64 828L129 829L193 861L257 853L321 834L386 822L450 846L450 901L386 901L321 901L257 901L193 901L129 901L64 901L0 901Z" fill="#ffffff"></path></svg>