<svg id="visual" viewBox="0 0 960 540" width="960" height="540" xmlns="http://www.w3.org/2000/svg" xmlns:xlink="http://www.w3.org/1999/xlink" version="1.1"><rect x="0" y="0" width="960" height="540" fill="#dedede"></rect><path d="M0 349L137 421L274 375L411 376L549 351L686 309L823 329L960 428L960 541L823 541L686 541L549 541L411 541L274 541L137 541L0 541Z" fill="#cccccc"></path><path d="M0 442L137 321L274 386L411 336L549 402L686 431L823 433L960 355L960 541L823 541L686 541L549 541L411 541L274 541L137 541L0 541Z" fill="#d3d3d3"></path><path d="M0 362L137 425L274 391L411 457L549 426L686 357L823 450L960 346L960 541L823 541L686 541L549 541L411 541L274 541L137 541L0 541Z" fill="#dadada"></path><path d="M0 433L137 475L274 424L411 402L549 398L686 416L823 372L960 435L960 541L823 541L686 541L549 541L411 541L274 541L137 541L0 541Z" fill="#e1e1e1"></path><path d="M0 401L137 407L274 460L411 442L549 473L686 451L823 491L960 421L960 541L823 541L686 541L549 541L411 541L274 541L137 541L0 541Z" fill="#e9e9e9"></path><path d="M0 441L137 483L274 438L411 493L549 477L686 495L823 460L960 491L960 541L823 541L686 541L549 541L411 541L274 541L137 541L0 541Z" fill="#f0f0f0"></path><path d="M0 494L137 496L274 463L411 509L549 472L686 505L823 473L960 469L960 541L823 541L686 541L549 541L411 541L274 541L137 541L0 541Z" fill="#f8f8f8"></path><path d="M0 498L137 496L274 497L411 516L549 512L686 500L823 493L960 507L960 541L823 541L686 541L549 541L411 541L274 541L137 541L0 541Z" fill="#ffffff"></path></svg>