<svg id="visual" viewBox="0 0 1200 1200" width="1200" height="1200" xmlns="http://www.w3.org/2000/svg" xmlns:xlink="http://www.w3.org/1999/xlink" version="1.1"><rect x="0" y="0" width="1200" height="1200" fill="#dedede"></rect><path d="M0 778L171 937L343 835L514 837L686 781L857 687L1029 733L1200 952L1200 1201L1029 1201L857 1201L686 1201L514 1201L343 1201L171 1201L0 1201Z" fill="#cccccc"></path><path d="M0 984L171 714L343 859L514 749L686 895L857 958L1029 963L1200 790L1200 1201L1029 1201L857 1201L686 1201L514 1201L343 1201L171 1201L0 1201Z" fill="#d3d3d3"></path><path d="M0 806L171 946L343 869L514 1017L686 948L857 795L1029 1001L1200 771L1200 1201L1029 1201L857 1201L686 1201L514 1201L343 1201L171 1201L0 1201Z" fill="#dadada"></path><path d="M0 963L171 1057L343 944L514 895L686 885L857 925L1029 829L1200 968L1200 1201L1029 1201L857 1201L686 1201L514 1201L343 1201L171 1201L0 1201Z" fill="#e1e1e1"></path><path d="M0 893L171 905L343 1023L514 983L686 1053L857 1004L1029 1093L1200 937L1200 1201L1029 1201L857 1201L686 1201L514 1201L343 1201L171 1201L0 1201Z" fill="#e9e9e9"></path><path d="M0 981L171 1074L343 974L514 1096L686 1061L857 1102L1029 1023L1200 1093L1200 1201L1029 1201L857 1201L686 1201L514 1201L343 1201L171 1201L0 1201Z" fill="#f0f0f0"></path><path d="M0 1100L171 1102L343 1030L514 1132L686 1049L857 1122L1029 1053L1200 1043L1200 1201L1029 1201L857 1201L686 1201L514 1201L343 1201L171 1201L0 1201Z" fill="#f8f8f8"></path><path d="M0 1108L171 1104L343 1106L514 1148L686 1138L857 1113L1029 1096L1200 1128L1200 1201L1029 1201L857 1201L686 1201L514 1201L343 1201L171 1201L0 1201Z" fill="#ffffff"></path></svg>