<svg id="visual" viewBox="0 0 450 900" width="450" height="900" xmlns="http://www.w3.org/2000/svg" xmlns:xlink="http://www.w3.org/1999/xlink" version="1.1"><rect x="0" y="0" width="450" height="900" fill="#dedede"></rect><path d="M0 769L75 805L150 680L225 738L300 802L375 690L450 784L450 901L375 901L300 901L225 901L150 901L75 901L0 901Z" fill="#cccccc"></path><path d="M0 826L75 711L150 827L225 725L300 706L375 724L450 818L450 901L375 901L300 901L225 901L150 901L75 901L0 901Z" fill="#d8d8d8"></path><path d="M0 783L75 835L150 772L225 745L300 829L375 751L450 760L450 901L375 901L300 901L225 901L150 901L75 901L0 901Z" fill="#e5e5e5"></path><path d="M0 838L75 784L150 857L225 784L300 789L375 844L450 839L450 901L375 901L300 901L225 901L150 901L75 901L0 901Z" fill="#f2f2f2"></path><path d="M0 852L75 871L150 840L225 828L300 884L375 856L450 830L450 901L375 901L300 901L225 901L150 901L75 901L0 901Z" fill="#ffffff"></path></svg>