<svg id="visual" viewBox="0 0 900 300" width="900" height="300" xmlns="http://www.w3.org/2000/svg" xmlns:xlink="http://www.w3.org/1999/xlink" version="1.1"><rect x="0" y="0" width="900" height="300" fill="#dedede"></rect><path d="M0 197L129 242L257 177L386 214L514 247L643 212L771 228L900 168L900 301L771 301L643 301L514 301L386 301L257 301L129 301L0 301Z" fill="#cccccc"></path><path d="M0 208L129 236L257 219L386 187L514 259L643 197L771 251L900 199L900 301L771 301L643 301L514 301L386 301L257 301L129 301L0 301Z" fill="#d8d8d8"></path><path d="M0 250L129 208L257 243L386 262L514 223L643 240L771 254L900 237L900 301L771 301L643 301L514 301L386 301L257 301L129 301L0 301Z" fill="#e5e5e5"></path><path d="M0 264L129 246L257 266L386 238L514 265L643 252L771 265L900 235L900 301L771 301L643 301L514 301L386 301L257 301L129 301L0 301Z" fill="#f2f2f2"></path><path d="M0 258L129 283L257 268L386 269L514 272L643 270L771 289L900 264L900 301L771 301L643 301L514 301L386 301L257 301L129 301L0 301Z" fill="#ffffff"></path></svg>