<svg id="visual" viewBox="0 0 900 900" width="900" height="900" xmlns="http://www.w3.org/2000/svg" xmlns:xlink="http://www.w3.org/1999/xlink" version="1.1"><rect x="0" y="0" width="900" height="900" fill="#dedede"></rect><path d="M0 594L129 729L257 533L386 644L514 743L643 639L771 685L900 505L900 901L771 901L643 901L514 901L386 901L257 901L129 901L0 901Z" fill="#cccccc"></path><path d="M0 626L129 711L257 659L386 562L514 780L643 593L771 756L900 599L900 901L771 901L643 901L514 901L386 901L257 901L129 901L0 901Z" fill="#d8d8d8"></path><path d="M0 752L129 626L257 730L386 787L514 672L643 721L771 765L900 712L900 901L771 901L643 901L514 901L386 901L257 901L129 901L0 901Z" fill="#e5e5e5"></path><path d="M0 794L129 740L257 801L386 717L514 798L643 759L771 797L900 708L900 901L771 901L643 901L514 901L386 901L257 901L129 901L0 901Z" fill="#f2f2f2"></path><path d="M0 775L129 852L257 806L386 810L514 817L643 811L771 869L900 793L900 901L771 901L643 901L514 901L386 901L257 901L129 901L0 901Z" fill="#ffffff"></path></svg>