<svg id="visual" viewBox="0 0 960 540" width="960" height="540" xmlns="http://www.w3.org/2000/svg" xmlns:xlink="http://www.w3.org/1999/xlink" version="1.1"><rect x="0" y="0" width="960" height="540" fill="#FFFFFF"></rect><path d="M0 356L137 437L274 320L411 386L549 445L686 383L823 411L960 302L960 541L823 541L686 541L549 541L411 541L274 541L137 541L0 541Z" fill="#a8a89e"></path><path d="M0 375L137 426L274 395L411 337L549 467L686 355L823 453L960 359L960 541L823 541L686 541L549 541L411 541L274 541L137 541L0 541Z" fill="#b5b5ae"></path><path d="M0 451L137 375L274 437L411 472L549 403L686 432L823 458L960 427L960 541L823 541L686 541L549 541L411 541L274 541L137 541L0 541Z" fill="#c3c3be"></path><path d="M0 476L137 444L274 480L411 430L549 478L686 455L823 478L960 424L960 541L823 541L686 541L549 541L411 541L274 541L137 541L0 541Z" fill="#d0d0ce"></path><path d="M0 464L137 511L274 483L411 486L549 490L686 486L823 521L960 476L960 541L823 541L686 541L549 541L411 541L274 541L137 541L0 541Z" fill="#dedede"></path></svg>